<svg xmlns="http://www.w3.org/2000/svg" width="659.984" height="659.984" viewBox="0 0 659.984 659.984"><g transform="translate(-3327 89)"><g transform="translate(3377 -34)" fill="#fff" stroke="#707070" stroke-width="1"><rect width="559" height="548" stroke="none"/><rect x="0.5" y="0.5" width="558" height="547" fill="none"/></g><path d="M549.983,659.984H110A111.132,111.132,0,0,1,87.862,657.7a109.731,109.731,0,0,1-39.283-16.6A110.643,110.643,0,0,1,8.73,592.744a109.783,109.783,0,0,1-6.441-20.621A111.14,111.14,0,0,1,0,549.983V110A111.142,111.142,0,0,1,2.289,87.862a109.734,109.734,0,0,1,16.6-39.283A110.643,110.643,0,0,1,67.241,8.73,109.79,109.79,0,0,1,87.862,2.289,111.142,111.142,0,0,1,110,0h439.98a111.14,111.14,0,0,1,22.141,2.289,109.734,109.734,0,0,1,39.283,16.6,110.643,110.643,0,0,1,39.848,48.356A109.781,109.781,0,0,1,657.7,87.862,111.132,111.132,0,0,1,659.984,110v439.98a111.132,111.132,0,0,1-2.289,22.141,109.728,109.728,0,0,1-16.6,39.283,110.643,110.643,0,0,1-48.356,39.848,109.778,109.778,0,0,1-20.621,6.441A111.13,111.13,0,0,1,549.983,659.984ZM80.5,83.5v489h493V83.5ZM311.94,528.657h-.015c-13.22,0-28.321-.043-45.807-.093h-.076c-24.64-.07-52.568-.149-86.7-.149V143.428H366.439a198.674,198.674,0,0,1,31.13,2.3,135.734,135.734,0,0,1,24.9,6.3,100.306,100.306,0,0,1,19.361,9.4,83.436,83.436,0,0,1,14.52,11.6,79.454,79.454,0,0,1,14.208,19.507,88.5,88.5,0,0,1,7.248,19.372,104.481,104.481,0,0,1,2.958,26.2q0,.42,0,.744c0,19.546-5,36.608-14.848,50.712-9.32,13.342-22.832,23.858-40.16,31.256V321.9c27.5,5.876,47.534,20.242,59.553,42.7a104.746,104.746,0,0,1,10.2,29.489,142.131,142.131,0,0,1,2.507,27.032c0,31.018-10.422,55.964-30.975,74.145a109.6,109.6,0,0,1-25.711,16.718A156.19,156.19,0,0,1,420.358,520a161.756,161.756,0,0,1-17.407,4.51,173.239,173.239,0,0,1-20.022,2.624C366.873,528.408,344.742,528.657,311.94,528.657Zm-65.2-175.58V473.422H366.349l.676,0a86.742,86.742,0,0,0,14.206-1.139,69.218,69.218,0,0,0,21.383-6.984c18.577-9.9,28-27.7,28-52.914,0-13.4-2.974-24.926-8.839-34.273-10.425-16.613-29.22-25.037-55.863-25.037Zm0-154.758V304.654H356.816c.094,0,.254,0,.475,0,3.835,0,17.35-.518,30.263-7.184a45.789,45.789,0,0,0,17.881-15.944c5.259-8.187,7.925-18.4,7.925-30.368,0-10.666-1.025-24.284-9.018-35a36.624,36.624,0,0,0-7.08-7.156,43.515,43.515,0,0,0-9.974-5.65c-8.154-3.345-18.435-5.041-30.557-5.041Z" transform="translate(3327 -89)"/></g></svg>